<?xml version="1.0" standalone="no"?>
<!DOCTYPE svg PUBLIC "-//W3C//DTD SVG 20010904//EN"
 "http://www.w3.org/TR/2001/REC-SVG-20010904/DTD/svg10.dtd">
<svg version="1.0" xmlns="http://www.w3.org/2000/svg"
 width="564.000000pt" height="443.000000pt" viewBox="0 0 564.000000 443.000000"
 preserveAspectRatio="xMidYMid meet">

<g transform="translate(0.000000,443.000000) scale(0.100000,-0.100000)"
fill="#000000" stroke="none">
<path d="M2735 3983 c-661 -54 -1233 -453 -1514 -1055 -277 -595 -211 -1295
173 -1831 370 -517 996 -810 1619 -758 455 38 841 215 1157 531 254 254 415
548 494 901 102 456 18 950 -229 1348 -362 584 -1024 920 -1700 864z m425 -87
c574 -96 1069 -470 1312 -993 258 -557 209 -1201 -131 -1713 -482 -726 -1415
-989 -2204 -622 -530 247 -906 749 -998 1337 -17 104 -17 408 0 510 93 580
442 1061 959 1319 199 100 371 148 642 180 66 8 335 -3 420 -18z"/>
<path d="M2200 3080 c0 -5 68 -104 150 -219 83 -115 150 -212 150 -214 0 -2
-26 -10 -57 -16 -155 -31 -243 -137 -243 -292 0 -115 62 -215 162 -260 50 -23
66 -24 276 -27 l222 -3 0 520 c0 514 0 521 -20 521 -19 0 -20 -7 -20 -225 l0
-225 -132 0 -133 0 -39 58 c-180 261 -279 392 -297 392 -10 0 -19 -4 -19 -10z
m615 -735 l0 -250 -178 -3 c-102 -1 -195 2 -217 8 -57 15 -120 68 -149 124
-54 104 -21 259 68 321 69 47 110 54 301 52 l175 -2 0 -250z"/>
<path d="M2920 2570 c0 -513 0 -520 20 -520 19 0 20 7 20 225 l0 226 132 -3
132 -3 156 -220 c118 -167 161 -221 179 -223 17 -3 22 0 18 11 -3 8 -69 104
-148 213 -78 109 -142 205 -143 213 -1 8 11 15 29 17 111 14 189 64 231 151
25 50 29 69 29 143 -1 121 -38 191 -135 247 -57 34 -130 43 -330 43 l-190 0 0
-520z m481 448 c90 -46 123 -100 128 -210 3 -69 0 -85 -24 -133 -28 -58 -79
-101 -144 -123 -21 -8 -105 -12 -217 -12 l-184 0 0 248 c0 137 3 252 7 255 3
4 88 7 188 7 l182 0 64 -32z"/>
<path d="M2030 1494 c0 -187 3 -283 10 -279 6 4 10 57 10 126 l0 119 73 0 72
-1 88 -124 c48 -69 92 -125 98 -125 13 0 0 21 -88 142 -35 48 -63 92 -63 97 0
5 16 12 35 15 43 8 94 50 111 93 33 77 1 168 -70 202 -35 18 -62 21 -159 21
l-117 0 0 -286z m267 246 c46 -28 67 -65 67 -120 0 -55 -21 -92 -67 -120 -26
-17 -51 -20 -139 -20 l-108 0 0 140 0 140 108 0 c88 0 113 -3 139 -20z"/>
<path d="M2530 1495 l0 -285 170 0 c107 0 170 4 170 10 0 6 -60 10 -160 10
l-161 0 3 133 3 132 160 5 160 4 -160 6 -160 5 -3 123 -3 122 161 0 c100 0
160 4 160 10 0 6 -63 10 -170 10 l-170 0 0 -285z"/>
<path d="M3012 1498 l3 -283 140 -3 c76 -1 146 1 155 5 8 4 -50 10 -130 13
l-145 5 -3 273 c-1 173 -6 272 -12 272 -7 0 -9 -99 -8 -282z"/>
<path d="M3442 1498 l3 -283 153 -3 c96 -2 152 1 152 7 0 7 -56 12 -142 13
l-143 3 -3 273 c-1 173 -6 272 -12 272 -7 0 -9 -99 -8 -282z"/>
</g>
</svg>
